# xmcd
#
# Track frame offsets:
#  150
#  16191
#  36940
#  55793
#  110471
#  127092
#  145599
#  178150
#  213688
#  227004
#  246479
#  267254
#  286102
#  305610
#
# Disc length: 4429 seconds
#
# Revision: 0
# Processed by: cddbd v1.5.1PL2 Copyright (c) Steve Scherf et al.
# Submitted via: Collectorz.com_Music_Collector 6.9
#
DISCID=ce114b0e
DTITLE=Todd Snider - Rocky Mountain Folks Festival - 21 Aug 2005
DYEAR=2005
DGENRE=
TTITLE0=I Can't Complain
TTITLE1=Db Cooper
TTITLE2=My Own Mind
TTITLE3=Incarcerated > Easy Money > Incarcerated
TTITLE4=Tension
TTITLE5=Missing You
TTITLE6=The Ballad Of The Kingsmen
TTITLE7=How I Became A Singer
TTITLE8=Don't It Make You Wanna Dance
TTITLE9=Tombstone Blues
TTITLE10=Tillamook County Jail
TTITLE11=Keep It Down
TTITLE12=Ccrwrswam
TTITLE13=Blowin In The Wind
EXTD=
EXTT0=
EXTT1=
EXTT2=
EXTT3=
EXTT4=
EXTT5=
EXTT6=
EXTT7=
EXTT8=
EXTT9=
EXTT10=
EXTT11=
EXTT12=
EXTT13=
PLAYORDER=
